<svg xmlns="http://www.w3.org/2000/svg" viewBox="0 0 620 400" width="620" height="400" role="img">
  <title>Gráfico de dos poblaciones de un mismo ecosistema a lo largo de veinticuatro meses</title>
  <g font-family="ui-sans-serif, system-ui, -apple-system, 'Segoe UI', Roboto, sans-serif">
    <g stroke="#e2e8f0" stroke-width="1">
      <line x1="78" y1="80" x2="550" y2="80"/>
      <line x1="78" y1="155" x2="550" y2="155"/>
      <line x1="78" y1="230" x2="550" y2="230"/>
      <line x1="78" y1="305" x2="550" y2="305"/>
    </g>

    <path d="M78.0 291.1 L80.0 291.1 L81.9 290.9 L83.9 290.4 L85.9 289.7 L87.8 288.8 L89.8 287.6 L91.8 286.3 L93.7 284.7 L95.7 282.8 L97.7 280.8 L99.6 278.6 L101.6 276.1 L103.6 273.5 L105.5 270.6 L107.5 267.6 L109.5 264.5 L111.4 261.1 L113.4 257.6 L115.4 254.0 L117.3 250.2 L119.3 246.3 L121.3 242.3 L123.2 238.2 L125.2 234.0 L127.2 229.7 L129.1 225.4 L131.1 220.9 L133.1 216.5 L135.0 212.0 L137.0 207.5 L139.0 203.0 L140.9 198.5 L142.9 194.0 L144.9 189.6 L146.8 185.2 L148.8 180.8 L150.8 176.5 L152.7 172.3 L154.7 168.2 L156.7 164.1 L158.6 160.2 L160.6 156.4 L162.6 152.8 L164.5 149.3 L166.5 145.9 L168.5 142.7 L170.4 139.7 L172.4 136.8 L174.4 134.2 L176.3 131.7 L178.3 129.4 L180.3 127.4 L182.2 125.5 L184.2 123.9 L186.2 122.5 L188.1 121.3 L190.1 120.4 L192.1 119.7 L194.0 119.2 L196.0 118.9 L198.0 118.9 L199.9 119.1 L201.9 119.6 L203.9 120.3 L205.8 121.2 L207.8 122.4 L209.8 123.7 L211.7 125.3 L213.7 127.2 L215.7 129.2 L217.6 131.4 L219.6 133.9 L221.6 136.5 L223.5 139.4 L225.5 142.4 L227.5 145.5 L229.4 148.9 L231.4 152.4 L233.4 156.0 L235.3 159.8 L237.3 163.7 L239.3 167.7 L241.2 171.8 L243.2 176.0 L245.2 180.3 L247.1 184.6 L249.1 189.1 L251.1 193.5 L253.0 198.0 L255.0 202.5 L257.0 207.0 L258.9 211.5 L260.9 216.0 L262.9 220.4 L264.8 224.8 L266.8 229.2 L268.8 233.5 L270.7 237.7 L272.7 241.8 L274.7 245.9 L276.6 249.8 L278.6 253.6 L280.6 257.2 L282.5 260.7 L284.5 264.1 L286.5 267.3 L288.4 270.3 L290.4 273.2 L292.4 275.8 L294.3 278.3 L296.3 280.6 L298.3 282.6 L300.2 284.5 L302.2 286.1 L304.2 287.5 L306.1 288.7 L308.1 289.6 L310.1 290.3 L312.0 290.8 L314.0 291.1 L316.0 291.1 L317.9 290.9 L319.9 290.4 L321.9 289.7 L323.8 288.8 L325.8 287.6 L327.8 286.3 L329.7 284.7 L331.7 282.8 L333.7 280.8 L335.6 278.6 L337.6 276.1 L339.6 273.5 L341.5 270.6 L343.5 267.6 L345.5 264.5 L347.4 261.1 L349.4 257.6 L351.4 254.0 L353.3 250.2 L355.3 246.3 L357.3 242.3 L359.2 238.2 L361.2 234.0 L363.2 229.7 L365.1 225.4 L367.1 220.9 L369.1 216.5 L371.0 212.0 L373.0 207.5 L375.0 203.0 L376.9 198.5 L378.9 194.0 L380.9 189.6 L382.8 185.2 L384.8 180.8 L386.8 176.5 L388.7 172.3 L390.7 168.2 L392.7 164.1 L394.6 160.2 L396.6 156.4 L398.6 152.8 L400.5 149.3 L402.5 145.9 L404.5 142.7 L406.4 139.7 L408.4 136.8 L410.4 134.2 L412.3 131.7 L414.3 129.4 L416.3 127.4 L418.2 125.5 L420.2 123.9 L422.2 122.5 L424.1 121.3 L426.1 120.4 L428.1 119.7 L430.0 119.2 L432.0 118.9 L434.0 118.9 L435.9 119.1 L437.9 119.6 L439.9 120.3 L441.8 121.2 L443.8 122.4 L445.8 123.7 L447.7 125.3 L449.7 127.2 L451.7 129.2 L453.6 131.4 L455.6 133.9 L457.6 136.5 L459.5 139.4 L461.5 142.4 L463.5 145.5 L465.4 148.9 L467.4 152.4 L469.4 156.0 L471.3 159.8 L473.3 163.7 L475.3 167.7 L477.2 171.8 L479.2 176.0 L481.2 180.3 L483.1 184.6 L485.1 189.1 L487.1 193.5 L489.0 198.0 L491.0 202.5 L493.0 207.0 L494.9 211.5 L496.9 216.0 L498.9 220.4 L500.8 224.8 L502.8 229.2 L504.8 233.5 L506.7 237.7 L508.7 241.8 L510.7 245.9 L512.6 249.8 L514.6 253.6 L516.6 257.2 L518.5 260.7 L520.5 264.1 L522.5 267.3 L524.4 270.3 L526.4 273.2 L528.4 275.8 L530.3 278.3 L532.3 280.6 L534.3 282.6 L536.2 284.5 L538.2 286.1 L540.2 287.5 L542.1 288.7 L544.1 289.6 L546.1 290.3 L548.0 290.8 L550.0 291.1" fill="none" stroke="#15803d" stroke-width="3.2" stroke-linejoin="round"/>
    <path d="M78.0 289.4 L80.0 290.8 L81.9 292.2 L83.9 293.5 L85.9 294.9 L87.8 296.2 L89.8 297.5 L91.8 298.8 L93.7 300.1 L95.7 301.3 L97.7 302.5 L99.6 303.6 L101.6 304.7 L103.6 305.8 L105.5 306.8 L107.5 307.8 L109.5 308.7 L111.4 309.5 L113.4 310.3 L115.4 311.0 L117.3 311.7 L119.3 312.3 L121.3 312.9 L123.2 313.3 L125.2 313.7 L127.2 314.1 L129.1 314.4 L131.1 314.5 L133.1 314.7 L135.0 314.7 L137.0 314.7 L139.0 314.6 L140.9 314.4 L142.9 314.2 L144.9 313.9 L146.8 313.5 L148.8 313.1 L150.8 312.6 L152.7 312.0 L154.7 311.3 L156.7 310.6 L158.6 309.8 L160.6 309.0 L162.6 308.1 L164.5 307.2 L166.5 306.2 L168.5 305.2 L170.4 304.1 L172.4 302.9 L174.4 301.8 L176.3 300.6 L178.3 299.3 L180.3 298.1 L182.2 296.8 L184.2 295.4 L186.2 294.1 L188.1 292.7 L190.1 291.4 L192.1 290.0 L194.0 288.6 L196.0 287.2 L198.0 285.9 L199.9 284.5 L201.9 283.1 L203.9 281.8 L205.8 280.4 L207.8 279.1 L209.8 277.9 L211.7 276.6 L213.7 275.4 L215.7 274.2 L217.6 273.1 L219.6 271.9 L221.6 270.9 L223.5 269.9 L225.5 268.9 L227.5 268.0 L229.4 267.2 L231.4 266.4 L233.4 265.6 L235.3 265.0 L237.3 264.3 L239.3 263.8 L241.2 263.3 L243.2 262.9 L245.2 262.6 L247.1 262.3 L249.1 262.1 L251.1 262.0 L253.0 261.9 L255.0 262.0 L257.0 262.1 L258.9 262.2 L260.9 262.5 L262.9 262.8 L264.8 263.1 L266.8 263.6 L268.8 264.1 L270.7 264.7 L272.7 265.3 L274.7 266.0 L276.6 266.8 L278.6 267.6 L280.6 268.5 L282.5 269.5 L284.5 270.5 L286.5 271.5 L288.4 272.6 L290.4 273.7 L292.4 274.9 L294.3 276.1 L296.3 277.3 L298.3 278.6 L300.2 279.9 L302.2 281.2 L304.2 282.6 L306.1 283.9 L308.1 285.3 L310.1 286.7 L312.0 288.0 L314.0 289.4 L316.0 290.8 L317.9 292.2 L319.9 293.5 L321.9 294.9 L323.8 296.2 L325.8 297.5 L327.8 298.8 L329.7 300.1 L331.7 301.3 L333.7 302.5 L335.6 303.6 L337.6 304.7 L339.6 305.8 L341.5 306.8 L343.5 307.8 L345.5 308.7 L347.4 309.5 L349.4 310.3 L351.4 311.0 L353.3 311.7 L355.3 312.3 L357.3 312.9 L359.2 313.3 L361.2 313.7 L363.2 314.1 L365.1 314.4 L367.1 314.5 L369.1 314.7 L371.0 314.7 L373.0 314.7 L375.0 314.6 L376.9 314.4 L378.9 314.2 L380.9 313.9 L382.8 313.5 L384.8 313.1 L386.8 312.6 L388.7 312.0 L390.7 311.3 L392.7 310.6 L394.6 309.8 L396.6 309.0 L398.6 308.1 L400.5 307.2 L402.5 306.2 L404.5 305.2 L406.4 304.1 L408.4 302.9 L410.4 301.8 L412.3 300.6 L414.3 299.3 L416.3 298.1 L418.2 296.8 L420.2 295.4 L422.2 294.1 L424.1 292.7 L426.1 291.4 L428.1 290.0 L430.0 288.6 L432.0 287.2 L434.0 285.9 L435.9 284.5 L437.9 283.1 L439.9 281.8 L441.8 280.4 L443.8 279.1 L445.8 277.9 L447.7 276.6 L449.7 275.4 L451.7 274.2 L453.6 273.1 L455.6 271.9 L457.6 270.9 L459.5 269.9 L461.5 268.9 L463.5 268.0 L465.4 267.2 L467.4 266.4 L469.4 265.6 L471.3 265.0 L473.3 264.3 L475.3 263.8 L477.2 263.3 L479.2 262.9 L481.2 262.6 L483.1 262.3 L485.1 262.1 L487.1 262.0 L489.0 261.9 L491.0 262.0 L493.0 262.1 L494.9 262.2 L496.9 262.5 L498.9 262.8 L500.8 263.1 L502.8 263.6 L504.8 264.1 L506.7 264.7 L508.7 265.3 L510.7 266.0 L512.6 266.8 L514.6 267.6 L516.6 268.5 L518.5 269.5 L520.5 270.5 L522.5 271.5 L524.4 272.6 L526.4 273.7 L528.4 274.9 L530.3 276.1 L532.3 277.3 L534.3 278.6 L536.2 279.9 L538.2 281.2 L540.2 282.6 L542.1 283.9 L544.1 285.3 L546.1 286.7 L548.0 288.0 L550.0 289.4" fill="none" stroke="#b91c1c" stroke-width="3.2" stroke-linejoin="round"
          stroke-dasharray="10 6"/>

    <g stroke="#1f2937" stroke-width="2.4" fill="none">
      <path d="M78 40 L78 330 L550 330"/>
    </g>

    <g font-size="13" fill="#4b5563" text-anchor="middle">
      <text x="78" y="352">0</text>
      <text x="196" y="352">6</text>
      <text x="314" y="352">12</text>
      <text x="432" y="352">18</text>
      <text x="550" y="352">24</text>
    </g>
    <text x="314" y="378" text-anchor="middle" font-size="15" font-weight="600" fill="#111827">Meses</text>
    <text x="26" y="185" text-anchor="middle" font-size="15" font-weight="600" fill="#111827"
          transform="rotate(-90 26 185)">Número de individuos</text>

    <g font-size="14">
      <line x1="330" y1="28" x2="368" y2="28" stroke="#15803d" stroke-width="3.2"/>
      <text x="376" y="33" fill="#111827">especie M</text>
      <line x1="454" y1="28" x2="492" y2="28" stroke="#b91c1c" stroke-width="3.2" stroke-dasharray="10 6"/>
      <text x="500" y="33" fill="#111827">especie N</text>
    </g>
  </g>
</svg>
