<svg xmlns="http://www.w3.org/2000/svg" viewBox="0 0 600 340" width="600" height="340" role="img">
  <title>Circuito con una resistencia en serie y otras dos en ramas paralelas</title>
  <g font-family="ui-sans-serif, system-ui, -apple-system, 'Segoe UI', Roboto, sans-serif">
    <path d="M110 70 L210 70" fill="none" stroke="#1f2937" stroke-width="2.6" stroke-linejoin="round"/>
    <path d="M288 70 L360 70" fill="none" stroke="#1f2937" stroke-width="2.6" stroke-linejoin="round"/>
    <path d="M360 70 L360 110" fill="none" stroke="#1f2937" stroke-width="2.6" stroke-linejoin="round"/>
    <path d="M360 70 L500 70 L500 110" fill="none" stroke="#1f2937" stroke-width="2.6" stroke-linejoin="round"/>
    <path d="M360 150 L360 250" fill="none" stroke="#1f2937" stroke-width="2.6" stroke-linejoin="round"/>
    <path d="M500 150 L500 250" fill="none" stroke="#1f2937" stroke-width="2.6" stroke-linejoin="round"/>
    <path d="M360 250 L500 250" fill="none" stroke="#1f2937" stroke-width="2.6" stroke-linejoin="round"/>
    <path d="M430 250 L430 300 L110 300 L110 210" fill="none" stroke="#1f2937" stroke-width="2.6" stroke-linejoin="round"/>
    <path d="M110 130 L110 70" fill="none" stroke="#1f2937" stroke-width="2.6" stroke-linejoin="round"/>
    <rect x="211" y="53" width="76" height="34" rx="4" fill="#fff" stroke="#1d4ed8" stroke-width="2.8"/><text x="249" y="43" text-anchor="middle" font-size="15" font-weight="600" fill="#111827">R1 = 10 Ω</text>
    <rect x="328" y="110" width="64" height="40" rx="4" fill="#fff" stroke="#15803d" stroke-width="2.8"/><text x="360" y="100" text-anchor="middle" font-size="15" font-weight="600" fill="#111827">R2 = 20 Ω</text>
    <rect x="468" y="110" width="64" height="40" rx="4" fill="#fff" stroke="#15803d" stroke-width="2.8"/><text x="500" y="100" text-anchor="middle" font-size="15" font-weight="600" fill="#111827">R3 = 20 Ω</text>
    <line x1="88" y1="156" x2="132" y2="156" stroke="#1f2937" stroke-width="3.4"/><line x1="99" y1="184" x2="121" y2="184" stroke="#1f2937" stroke-width="6"/><line x1="110" y1="130" x2="110" y2="156" stroke="#1f2937" stroke-width="2.6"/><line x1="110" y1="184" x2="110" y2="210" stroke="#1f2937" stroke-width="2.6"/><text x="76" y="176" text-anchor="end" font-size="15" font-weight="600" fill="#111827">12 V</text>
  </g>
</svg>
