<svg xmlns="http://www.w3.org/2000/svg" viewBox="0 0 600 318" width="600" height="318" role="img">
  <title>Una onda que al cruzar la frontera entre dos medios pasa a tener ondulaciones más juntas, con la misma altura</title>
  <g font-family="ui-sans-serif, system-ui, -apple-system, 'Segoe UI', Roboto, sans-serif">
    <rect x="60" y="40" width="240" height="220" fill="#e0f2fe" stroke="#4b5563" stroke-width="1.6"/>
    <rect x="300" y="40" width="240" height="220" fill="#fef3c7" stroke="#4b5563" stroke-width="1.6"/>
    <line x1="300" y1="30" x2="300" y2="270" stroke="#1f2937" stroke-width="3"/>
    <text x="180" y="66" text-anchor="middle" font-size="15" font-weight="600" fill="#111827">Medio 1</text>
    <text x="420" y="66" text-anchor="middle" font-size="15" font-weight="600" fill="#111827">Medio 2</text>
    <path d="M60.0 160.0 L62.0 155.8 L64.0 151.7 L66.0 147.6 L68.0 143.7 L70.0 140.0 L72.0 136.5 L74.0 133.2 L76.0 130.3 L78.0 127.6 L80.0 125.4 L82.0 123.5 L84.0 122.0 L86.0 120.9 L88.0 120.2 L90.0 120.0 L92.0 120.2 L94.0 120.9 L96.0 122.0 L98.0 123.5 L100.0 125.4 L102.0 127.6 L104.0 130.3 L106.0 133.2 L108.0 136.5 L110.0 140.0 L112.0 143.7 L114.0 147.6 L116.0 151.7 L118.0 155.8 L120.0 160.0 L122.0 164.2 L124.0 168.3 L126.0 172.4 L128.0 176.3 L130.0 180.0 L132.0 183.5 L134.0 186.8 L136.0 189.7 L138.0 192.4 L140.0 194.6 L142.0 196.5 L144.0 198.0 L146.0 199.1 L148.0 199.8 L150.0 200.0 L152.0 199.8 L154.0 199.1 L156.0 198.0 L158.0 196.5 L160.0 194.6 L162.0 192.4 L164.0 189.7 L166.0 186.8 L168.0 183.5 L170.0 180.0 L172.0 176.3 L174.0 172.4 L176.0 168.3 L178.0 164.2 L180.0 160.0 L182.0 155.8 L184.0 151.7 L186.0 147.6 L188.0 143.7 L190.0 140.0 L192.0 136.5 L194.0 133.2 L196.0 130.3 L198.0 127.6 L200.0 125.4 L202.0 123.5 L204.0 122.0 L206.0 120.9 L208.0 120.2 L210.0 120.0 L212.0 120.2 L214.0 120.9 L216.0 122.0 L218.0 123.5 L220.0 125.4 L222.0 127.6 L224.0 130.3 L226.0 133.2 L228.0 136.5 L230.0 140.0 L232.0 143.7 L234.0 147.6 L236.0 151.7 L238.0 155.8 L240.0 160.0 L242.0 164.2 L244.0 168.3 L246.0 172.4 L248.0 176.3 L250.0 180.0 L252.0 183.5 L254.0 186.8 L256.0 189.7 L258.0 192.4 L260.0 194.6 L262.0 196.5 L264.0 198.0 L266.0 199.1 L268.0 199.8 L270.0 200.0 L272.0 199.8 L274.0 199.1 L276.0 198.0 L278.0 196.5 L280.0 194.6 L282.0 192.4 L284.0 189.7 L286.0 186.8 L288.0 183.5 L290.0 180.0 L292.0 176.3 L294.0 172.4 L296.0 168.3 L298.0 164.2 L300.0 160.0" fill="none" stroke="#1d4ed8" stroke-width="3.4"/>
    <path d="M300.0 160.0 L302.0 151.7 L304.0 143.7 L306.0 136.5 L308.0 130.3 L310.0 125.4 L312.0 122.0 L314.0 120.2 L316.0 120.2 L318.0 122.0 L320.0 125.4 L322.0 130.3 L324.0 136.5 L326.0 143.7 L328.0 151.7 L330.0 160.0 L332.0 168.3 L334.0 176.3 L336.0 183.5 L338.0 189.7 L340.0 194.6 L342.0 198.0 L344.0 199.8 L346.0 199.8 L348.0 198.0 L350.0 194.6 L352.0 189.7 L354.0 183.5 L356.0 176.3 L358.0 168.3 L360.0 160.0 L362.0 151.7 L364.0 143.7 L366.0 136.5 L368.0 130.3 L370.0 125.4 L372.0 122.0 L374.0 120.2 L376.0 120.2 L378.0 122.0 L380.0 125.4 L382.0 130.3 L384.0 136.5 L386.0 143.7 L388.0 151.7 L390.0 160.0 L392.0 168.3 L394.0 176.3 L396.0 183.5 L398.0 189.7 L400.0 194.6 L402.0 198.0 L404.0 199.8 L406.0 199.8 L408.0 198.0 L410.0 194.6 L412.0 189.7 L414.0 183.5 L416.0 176.3 L418.0 168.3 L420.0 160.0 L422.0 151.7 L424.0 143.7 L426.0 136.5 L428.0 130.3 L430.0 125.4 L432.0 122.0 L434.0 120.2 L436.0 120.2 L438.0 122.0 L440.0 125.4 L442.0 130.3 L444.0 136.5 L446.0 143.7 L448.0 151.7 L450.0 160.0 L452.0 168.3 L454.0 176.3 L456.0 183.5 L458.0 189.7 L460.0 194.6 L462.0 198.0 L464.0 199.8 L466.0 199.8 L468.0 198.0 L470.0 194.6 L472.0 189.7 L474.0 183.5 L476.0 176.3 L478.0 168.3 L480.0 160.0 L482.0 151.7 L484.0 143.7 L486.0 136.5 L488.0 130.3 L490.0 125.4 L492.0 122.0 L494.0 120.2 L496.0 120.2 L498.0 122.0 L500.0 125.4 L502.0 130.3 L504.0 136.5 L506.0 143.7 L508.0 151.7 L510.0 160.0 L512.0 168.3 L514.0 176.3 L516.0 183.5 L518.0 189.7 L520.0 194.6 L522.0 198.0 L524.0 199.8 L526.0 199.8 L528.0 198.0 L530.0 194.6 L532.0 189.7 L534.0 183.5 L536.0 176.3 L538.0 168.3 L540.0 160.0" fill="none" stroke="#1d4ed8" stroke-width="3.4"/>
    <text x="300" y="298" text-anchor="middle" font-size="14" fill="#4b5563">La misma onda al pasar del medio 1 al medio 2. La fuente no cambió.</text>
  </g>
</svg>
