<svg xmlns="http://www.w3.org/2000/svg" viewBox="0 0 360 360" width="360" height="360" role="img">
  <title>Dos rectas paralelas dibujadas en un mismo plano cartesiano, que nunca se cortan</title>
  <g font-family="ui-sans-serif, system-ui, -apple-system, 'Segoe UI', Roboto, sans-serif" fill="none" stroke="none">
    <line x1="34" y1="34" x2="34" y2="326" stroke="#d4d4d8" stroke-width="1"/>
    <line x1="70.5" y1="34" x2="70.5" y2="326" stroke="#d4d4d8" stroke-width="1"/>
    <line x1="107" y1="34" x2="107" y2="326" stroke="#d4d4d8" stroke-width="1"/>
    <line x1="143.5" y1="34" x2="143.5" y2="326" stroke="#d4d4d8" stroke-width="1"/>
    <line x1="180" y1="34" x2="180" y2="326" stroke="#d4d4d8" stroke-width="1"/>
    <line x1="216.5" y1="34" x2="216.5" y2="326" stroke="#d4d4d8" stroke-width="1"/>
    <line x1="253" y1="34" x2="253" y2="326" stroke="#d4d4d8" stroke-width="1"/>
    <line x1="289.5" y1="34" x2="289.5" y2="326" stroke="#d4d4d8" stroke-width="1"/>
    <line x1="326" y1="34" x2="326" y2="326" stroke="#d4d4d8" stroke-width="1"/>
    <line x1="34" y1="326" x2="326" y2="326" stroke="#d4d4d8" stroke-width="1"/>
    <line x1="34" y1="289.5" x2="326" y2="289.5" stroke="#d4d4d8" stroke-width="1"/>
    <line x1="34" y1="253" x2="326" y2="253" stroke="#d4d4d8" stroke-width="1"/>
    <line x1="34" y1="216.5" x2="326" y2="216.5" stroke="#d4d4d8" stroke-width="1"/>
    <line x1="34" y1="180" x2="326" y2="180" stroke="#d4d4d8" stroke-width="1"/>
    <line x1="34" y1="143.5" x2="326" y2="143.5" stroke="#d4d4d8" stroke-width="1"/>
    <line x1="34" y1="107" x2="326" y2="107" stroke="#d4d4d8" stroke-width="1"/>
    <line x1="34" y1="70.5" x2="326" y2="70.5" stroke="#d4d4d8" stroke-width="1"/>
    <line x1="34" y1="34" x2="326" y2="34" stroke="#d4d4d8" stroke-width="1"/>
    <line x1="24" y1="289.5" x2="340" y2="289.5" stroke="#111827" stroke-width="2"/>
    <line x1="70.5" y1="336" x2="70.5" y2="20" stroke="#111827" stroke-width="2"/>
    <path d="M340 289.5 L330 284.5 L330 294.5 Z" fill="#111827" stroke="#111827" stroke-width="1" stroke-linejoin="round"/>
    <path d="M70.5 20 L65.5 30 L75.5 30 Z" fill="#111827" stroke="#111827" stroke-width="1" stroke-linejoin="round"/>
    <text x="338" y="277.5" text-anchor="middle" font-size="14" font-weight="600" fill="#111827">x</text>
    <text x="84.5" y="26" text-anchor="middle" font-size="14" font-weight="600" fill="#111827">y</text>
    <text x="143.5" y="309.5" text-anchor="middle" font-size="12" fill="#4b5563">2</text>
    <text x="216.5" y="309.5" text-anchor="middle" font-size="12" fill="#4b5563">4</text>
    <text x="289.5" y="309.5" text-anchor="middle" font-size="12" fill="#4b5563">6</text>
    <text x="60.5" y="221.5" text-anchor="end" font-size="12" fill="#4b5563">2</text>
    <text x="60.5" y="148.5" text-anchor="end" font-size="12" fill="#4b5563">4</text>
    <text x="60.5" y="75.5" text-anchor="end" font-size="12" fill="#4b5563">6</text>
    <path d="M52.25 234.75 L307.75 107" fill="none" stroke="#111827" stroke-width="2" stroke-linejoin="round"/>
    <path d="M52.25 307.75 L307.75 180" fill="none" stroke="#111827" stroke-width="2" stroke-linejoin="round" stroke-dasharray="7 5"/>
    <text x="260.3" y="92.4" text-anchor="middle" font-size="14" font-weight="700" fill="#111827">L1</text>
    <text x="285.85" y="165.4" text-anchor="middle" font-size="14" font-weight="700" fill="#111827">L2</text>
  </g>
</svg>
