<svg xmlns="http://www.w3.org/2000/svg" viewBox="0 0 560 190" width="560" height="190" role="img">
  <title>Recta numérica de -2 a 2 con cuatro puntos marcados: P, Q, R y S</title>
  <g font-family="ui-sans-serif, system-ui, -apple-system, 'Segoe UI', Roboto, sans-serif" fill="none" stroke="none">
    <line x1="52" y1="130" x2="508" y2="130" stroke="#111827" stroke-width="2"/>
    <path d="M508 130 L496 124 L496 136 Z" fill="#111827" stroke="#111827" stroke-width="1" stroke-linejoin="round"/>
    <path d="M52 130 L64 124 L64 136 Z" fill="#111827" stroke="#111827" stroke-width="1" stroke-linejoin="round"/>
    <line x1="70" y1="123" x2="70" y2="137" stroke="#111827" stroke-width="1.6"/>
    <text x="70" y="158" text-anchor="middle" font-size="13" fill="#4b5563">-2</text>
    <line x1="175" y1="123" x2="175" y2="137" stroke="#111827" stroke-width="1.6"/>
    <text x="175" y="158" text-anchor="middle" font-size="13" fill="#4b5563">-1</text>
    <line x1="280" y1="123" x2="280" y2="137" stroke="#111827" stroke-width="1.6"/>
    <text x="280" y="158" text-anchor="middle" font-size="13" fill="#4b5563">0</text>
    <line x1="385" y1="123" x2="385" y2="137" stroke="#111827" stroke-width="1.6"/>
    <text x="385" y="158" text-anchor="middle" font-size="13" fill="#4b5563">1</text>
    <line x1="490" y1="123" x2="490" y2="137" stroke="#111827" stroke-width="1.6"/>
    <text x="490" y="158" text-anchor="middle" font-size="13" fill="#4b5563">2</text>
    <circle cx="122.5" cy="130" r="5" fill="#111827"/>
    <text x="122.5" y="108" text-anchor="middle" font-size="15" font-weight="700" fill="#111827">P</text>
    <circle cx="201.25" cy="130" r="5" fill="#111827"/>
    <text x="201.25" y="108" text-anchor="middle" font-size="15" font-weight="700" fill="#111827">Q</text>
    <circle cx="332.5" cy="130" r="5" fill="#111827"/>
    <text x="332.5" y="108" text-anchor="middle" font-size="15" font-weight="700" fill="#111827">R</text>
    <circle cx="411.25" cy="130" r="5" fill="#111827"/>
    <text x="411.25" y="108" text-anchor="middle" font-size="15" font-weight="700" fill="#111827">S</text>
    <line x1="122.5" y1="123" x2="122.5" y2="137" stroke="#4b5563" stroke-width="1.2"/>
    <line x1="201.25" y1="123" x2="201.25" y2="137" stroke="#4b5563" stroke-width="1.2"/>
    <line x1="332.5" y1="123" x2="332.5" y2="137" stroke="#4b5563" stroke-width="1.2"/>
    <line x1="411.25" y1="123" x2="411.25" y2="137" stroke="#4b5563" stroke-width="1.2"/>
  </g>
</svg>
